<?xml version="1.0" encoding="utf-8"?>
<svg xmlns="http://www.w3.org/2000/svg" xmlns:xlink="http://www.w3.org/1999/xlink" version="1.1" id="Capa_1" x="0px" y="0px" viewBox="0 0 576 288" style="enable-background:new 0 0 576 288;">
<style type="text/css">
	.st0{fill:#FFFFFF;}
	.st1{fill:none;stroke:#FFFFFF;stroke-width:1.7624;}
</style>
<g>
	<g>
		<path class="st0" d="M357.1,183.3c1.3,0.8,3.5,1.6,5.5,1.6c3,0,4.4-1.5,4.4-3.4c0-2-1.2-3.1-4.2-4.2c-4.2-1.5-6.1-3.8-6.1-6.5&#xD;&#xA;			c0-3.7,3.1-6.7,7.9-6.7c2.4,0,4.4,0.6,5.6,1.4l-1,3c-0.9-0.5-2.5-1.3-4.7-1.3c-2.4,0-3.8,1.4-3.8,3.1c0,1.9,1.3,2.7,4.3,3.9&#xD;&#xA;			c3.9,1.5,6,3.4,6,6.8c0,4.1-3.1,6.9-8.5,6.9c-2.5,0-4.8-0.7-6.5-1.6L357.1,183.3L357.1,183.3z"/>
		<path class="st0" d="M336.3,176.9c0.1,5.6,3.7,7.9,7.8,7.9c3,0,4.8-0.5,6.4-1.2l0.8,3c-1.5,0.7-4,1.5-7.7,1.5&#xD;&#xA;			c-7,0-11.3-4.7-11.3-11.5c0-6.9,4.1-12.3,10.8-12.3c7.5,0,9.4,6.6,9.4,10.8c0,0.9-0.1,1.5-0.2,1.9L336.3,176.9L336.3,176.9z&#xD;&#xA;			 M348.5,173.9L348.5,173.9c0.1-2.6-1-6.7-5.7-6.7c-4.3,0-6,3.8-6.4,6.7H348.5L348.5,173.9z"/>
		<path class="st0" d="M323.7,159.2v5.5h5.9v3.1h-5.9v12.3c0,2.8,0.8,4.5,3.1,4.5c1.1,0,1.8-0.1,2.4-0.3l0.2,3.1&#xD;&#xA;			c-0.8,0.3-2.1,0.5-3.7,0.5c-1.9,0-3.5-0.7-4.5-1.7c-1.1-1.3-1.6-3.3-1.6-6v-12.4H316v-3.1h3.6v-4.2L323.7,159.2L323.7,159.2z"/>
		<path class="st0" d="M302.1,171.8c0-2.7-0.1-5-0.2-7.2h3.7l0.2,4.5h0.2c1-3.1,3.6-5,6.4-5c0.4,0,0.8,0.1,1.1,0.1v3.9&#xD;&#xA;			c-0.4-0.1-0.9-0.1-1.4-0.1c-3,0-5,2.2-5.6,5.3c-0.1,0.6-0.2,1.3-0.2,1.9v12.2h-4.2V171.8L302.1,171.8z"/>
		<path class="st0" d="M285.3,188.1c-6.1,0-11-4.5-11-11.8c0-7.7,5.1-12.2,11.4-12.2c6.6,0,11,4.8,11,11.7&#xD;&#xA;			C296.8,184.4,290.9,188.1,285.3,188.1L285.3,188.1L285.3,188.1z M285.5,185L285.5,185c3.9,0,7-3.8,7-8.9c0-3.8-1.9-8.7-6.8-8.7&#xD;&#xA;			c-4.9,0-7,4.5-7,8.9C278.6,181.1,281.5,185,285.5,185L285.5,185L285.5,185z"/>
		<path class="st0" d="M249.1,172.1c0-3-0.1-5.3-0.2-7.5h3.8l0.3,3.9h0.1c1.7-2.8,4.4-4.5,8.1-4.5c5.6,0,9.7,4.7,9.7,11.6&#xD;&#xA;			c0,8.2-5.1,12.3-10.4,12.3c-3.1,0-5.7-1.3-7.1-3.6h-0.1v12.4h-4.2L249.1,172.1L249.1,172.1z M253.3,178.3L253.3,178.3&#xD;&#xA;			c0,0.5,0.1,1.2,0.2,1.7c0.7,2.9,3.2,4.9,6.2,4.9c4.4,0,7-3.6,7-8.8c0-4.5-2.4-8.5-6.7-8.5c-2.8,0-5.5,2-6.4,5.2&#xD;&#xA;			c-0.1,0.5-0.3,1.1-0.3,1.7L253.3,178.3L253.3,178.3z"/>
		<path class="st0" d="M227.8,176.9c0.1,5.6,3.7,7.9,7.8,7.9c3,0,4.8-0.5,6.4-1.2l0.8,3c-1.5,0.7-4,1.5-7.7,1.5&#xD;&#xA;			c-7,0-11.3-4.7-11.3-11.5c0-6.9,4.1-12.3,10.8-12.3c7.5,0,9.4,6.6,9.4,10.8c0,0.9-0.1,1.5-0.2,1.9L227.8,176.9L227.8,176.9z&#xD;&#xA;			 M240,173.9L240,173.9c0.1-2.6-1-6.7-5.7-6.7c-4.3,0-6,3.8-6.4,6.7H240L240,173.9z"/>
		<path class="st0" d="M218.5,153.9v27.7c0,2,0.1,4.4,0.2,5.9h-3.8l-0.2-3.9h-0.1c-1.3,2.5-4,4.5-7.8,4.5c-5.5,0-9.9-4.7-9.9-11.6&#xD;&#xA;			c-0.1-7.7,4.7-12.3,10.2-12.3c3.6,0,5.9,1.7,6.9,3.5h0.1V154L218.5,153.9L218.5,153.9z M214.3,174L214.3,174&#xD;&#xA;			c0-0.5-0.1-1.2-0.2-1.8c-0.6-2.6-2.9-4.8-6-4.8c-4.3,0-6.8,3.8-6.8,8.8c0,4.7,2.4,8.5,6.7,8.5c2.8,0,5.3-1.9,6.1-5&#xD;&#xA;			c0.2-0.5,0.2-1,0.2-1.7V174L214.3,174z"/>
	</g>
	<g>
		<path class="st0" d="M206.6,116.4v6.7h5.2v5.4h-5.2v8.6c0,2.9,0.7,4.2,2.9,4.2c0.9,0,1.7-0.1,2.2-0.2l0.1,5.6&#xD;&#xA;			c-1,0.3-2.7,0.6-4.8,0.6c-2.4,0-4.4-0.8-5.5-2c-1.3-1.4-2-3.7-2-7v-9.6h-3.2v-5.4h3.1v-5.2L206.6,116.4z"/>
		<path class="st0" d="M220.4,123.2l3.1,10.9c0.6,2,1,3.8,1.3,5.8h0.2c0.3-1.9,0.8-3.7,1.3-5.8l3.1-10.9h7.7l-8.7,23.6H221&#xD;&#xA;			l-8.6-23.6H220.4z"/>
		<path class="st0" d="M257.4,146.8l-0.4-2.4h-0.2c-1.6,1.9-3.9,2.9-6.7,2.9c-4.8,0-7.6-3.5-7.6-7.3c0-6.1,5.5-9.1,13.9-9v-0.3&#xD;&#xA;			c0-1.2-0.7-3.1-4.3-3.1c-2.4,0-5,0.8-6.6,1.7l-1.3-4.7c1.7-1,4.9-2.1,9.2-2.1c7.9,0,10.4,4.6,10.4,10.2v8.2c0,2.3,0.1,4.5,0.3,5.8&#xD;&#xA;			L257.4,146.8L257.4,146.8z M256.6,135.7c-3.8-0.1-6.8,0.9-6.8,3.8c0,1.9,1.2,2.8,2.9,2.8c1.8,0,3.3-1.2,3.8-2.7&#xD;&#xA;			c0.1-0.3,0.2-0.8,0.2-1.2L256.6,135.7L256.6,135.7z"/>
		<path class="st0" d="M266.2,142.6l7.4-9.4c1.3-1.6,2.4-2.8,3.8-4.2v-0.1H267v-5.8h19.3v4.4l-7.1,8.9c-1.3,1.6-2.5,3.1-3.8,4.4v0.1&#xD;&#xA;			h11.4v5.9h-20.6V142.6z"/>
		<path class="st0" d="M297.5,116.4v6.7h5.2v5.4h-5.2v8.6c0,2.9,0.7,4.2,2.9,4.2c0.9,0,1.7-0.1,2.2-0.2l0.1,5.6&#xD;&#xA;			c-1,0.3-2.7,0.6-4.8,0.6c-2.4,0-4.4-0.8-5.5-2c-1.3-1.4-2-3.7-2-7v-9.6h-3.1v-5.4h3.1v-5.2L297.5,116.4z"/>
		<path class="st0" d="M311,137.3c0.3,3.1,3.2,4.5,6.6,4.5c2.5,0,4.5-0.3,6.6-1l1,5c-2.4,1-5.3,1.5-8.6,1.5c-8,0-12.6-4.6-12.6-12.1&#xD;&#xA;			c0-5.9,3.8-12.6,11.9-12.6c7.6,0,10.5,5.9,10.5,11.8c0,1.2-0.2,2.4-0.3,2.9H311z M319.6,132.3c0-1.7-0.8-4.8-4.1-4.8&#xD;&#xA;			c-3.1,0-4.4,2.8-4.5,4.8H319.6z"/>
		<path class="st0" d="M347.1,146.3c-1.3,0.6-3.8,1-6.6,1c-7.6,0-12.5-4.6-12.5-12.1c0-6.9,4.7-12.6,13.6-12.6c1.9,0,4,0.3,5.6,0.9&#xD;&#xA;			l-1.1,5.4c-0.9-0.3-2.2-0.7-4.1-0.7c-3.8,0-6.4,2.7-6.3,6.6c0,4.4,2.9,6.6,6.5,6.6c1.7,0,3.1-0.3,4.2-0.7L347.1,146.3z"/>
		<path class="st0" d="M363.3,146.8l-0.4-2.4h-0.2c-1.6,1.9-3.9,2.9-6.7,2.9c-4.8,0-7.6-3.5-7.6-7.3c0-6.1,5.5-9.1,13.9-9v-0.3&#xD;&#xA;			c0-1.2-0.7-3.1-4.3-3.1c-2.4,0-5,0.8-6.6,1.7l-1.3-4.7c1.7-1,4.9-2.1,9.2-2.1c7.9,0,10.4,4.6,10.4,10.2v8.2c0,2.3,0.1,4.5,0.3,5.8&#xD;&#xA;			L363.3,146.8L363.3,146.8z M362.5,135.7c-3.8-0.1-6.8,0.9-6.8,3.8c0,1.9,1.2,2.8,2.9,2.8c1.8,0,3.3-1.2,3.8-2.7&#xD;&#xA;			c0.1-0.3,0.2-0.8,0.2-1.2L362.5,135.7L362.5,135.7z"/>
	</g>
	<g>
		<g>
			<g>
				<g>
					<g>
						<g>
							<g>
								<g>
									<g>
										<path class="st0" d="M340.8,94.6l-28-45c0,0-0.3-0.3-0.3-0.4c-1.7-2.4-3.9-3-5.3-3c-9.3,0-11.5,16.9-11.5,20.5&#xD;&#xA;											c0,9.9,2.9,19.5,2.9,19.5c5.4,17.3,16.1,21.5,25.1,21.5h0.1c6.5,0,12.1-2.2,14.2-3.1c0.3-0.1,3.1-1.3,3.8-4.5&#xD;&#xA;											C342.5,96.7,340.8,94.6,340.8,94.6z"/>
										<path class="st0" d="M296.8,27.2L296.8,27.2c-16.7,3.9-45.7,16.4-54.8,54.6c-0.3,1.5-2.1,10.8-1.2,14&#xD;&#xA;											c0.5,2.2,2.4,7.9,9.9,7.5c5.5-0.3,7.4-5.5,7.7-6.4c0.7-2.2,0.7-4.1,0.7-4.1s0-0.2,0-0.4c0-4.9,1.1-46.9,38.7-62.8&#xD;&#xA;											c0.3-0.1,1-0.7,0.7-1.6C297.9,27,297,27.1,296.8,27.2z"/>
										<path class="st0" d="M304.6,28.4c-13.8,4.4-42.9,18.6-42.9,67.1c0,0-0.3,7.1,0.9,10c0.7,1.6,4.5,8.2,12.3,4.8&#xD;&#xA;											c4.9-2.2,5.2-7.4,5.2-8.4c0-2.5-1.2-7-1.5-9.4c-0.3-2.5-0.6-6-0.6-10.2c0-15.2,4.2-38.8,27.6-51.4c0,0,0.1,0,0.1-0.1&#xD;&#xA;											c0.5-0.3,1-0.8,0.6-1.6C305.9,28.4,305.2,28.3,304.6,28.4z"/>
										<path class="st0" d="M308.2,32.1c-2.4,1-36.7,14.5-25.5,67.7c0.2,1,1.1,5.2,2.7,7.5c0.8,1.2,4.6,6.3,11.5,3.5&#xD;&#xA;											c4.3-1.7,5.2-6.5,5.2-7.8c0.2-4.4-4-10.1-5.6-15c-1.6-4.9-3.1-11.6-3.1-19.2c0-11.3,3.6-24.1,16.2-34.7&#xD;&#xA;											c0.3-0.3,0.7-0.9,0.3-1.5C309.4,32,308.6,31.9,308.2,32.1z"/>
										<path class="st0" d="M259.2,36.1c-0.3-0.2-6.4-2.9-32-2.9c-3.8,0-8.1,0.1-12.9,0.2c-0.2,0-0.9,0.1-1.1,0.9&#xD;&#xA;											c-0.2,0.5,0.3,1.2,0.4,1.3c5.6,4.2,19.5,15.5,26.8,30.2c0.3,0.4,1,1.6,2.4,1.4c1.3-0.2,1.8-1,2-1.6&#xD;&#xA;											c2.3-5.2,7-13.6,16.1-22c0.3-0.3,1.4-1.4,1.3-3.2C262.3,38.9,261.7,36.9,259.2,36.1z"/>
									</g>
								</g>
							</g>
						</g>
					</g>
				</g>
			</g>
		</g>
	</g>
</g>
<g>
	<path class="st1" d="M162.7,212.9h8.2l3,15.2l3.3-15.2h8.7l-7.3,34.3h-8.2l-3-15.1l-3.2,15.1h-8.7L162.7,212.9z"/>
	<path class="st1" d="M201.7,212.9h19.3l-1.8,8.3h-10.6l-1.1,5.2h8.1l-1.6,7.5h-8.1l-1.1,5h10.6l-1.7,8.3h-19.3L201.7,212.9z"/>
	<path class="st1" d="M237.4,221.2h-5.9l1.8-8.3h20.5l-1.8,8.3h-5.9l-5.6,26h-8.7L237.4,221.2z"/>
	<path class="st1" d="M264.4,212.9h8.4l-0.6,20.1l7.7-20.1h7.7l-0.6,20.1l7.7-20.1h8.9l-14.7,34.3h-8.9l0.6-19.3l-7.2,19.3h-8.9&#xD;&#xA;		L264.4,212.9z"/>
	<path class="st1" d="M310.4,235.9l2.5-11.8c1.6-7.3,6-11.9,13-11.9c6.8,0,11.5,4.5,9.9,11.9l-2.5,11.8c-1.5,7.2-6.1,11.8-13.1,11.8&#xD;&#xA;		C313.6,247.8,308.8,243.3,310.4,235.9z M321.1,239.5c1.3,0,3-0.3,3.6-3.3l2.7-12.4c0.6-3-0.8-3.3-2.2-3.3c-1.3,0-2.9,0.3-3.5,3.3&#xD;&#xA;		l-2.7,12.4C318.4,239.2,319.9,239.5,321.1,239.5z"/>
	<path class="st1" d="M353.1,212.9h10.4c6.8,0,11.1,4.5,9.6,12.9l-0.2,1.1c-0.9,5-3,8.9-6.7,10.9l2,9.4h-9.4l-0.9-7.8h-1.9l-1.7,7.8&#xD;&#xA;		h-8.7L353.1,212.9z M359.4,231.2c1.7,0,4.1-0.5,5-4.6l0.1-0.8c0.9-4.1-1.1-4.7-3-4.7H360l-2.2,10.1H359.4z"/>
	<path class="st1" d="M390.2,212.9h8.7l-2.9,13.6h1.8l7.2-13.6h9.4l-9.9,17.8l2.6,16.5h-9.4l-1.4-13.3h-1.8l-2.8,13.3h-8.7&#xD;&#xA;		L390.2,212.9z"/>
</g>
</svg>
