<?xml version="1.0" encoding="UTF-8" standalone="no"?>
<svg
   xmlns:dc="http://purl.org/dc/elements/1.1/"
   xmlns:cc="http://creativecommons.org/ns#"
   xmlns:rdf="http://www.w3.org/1999/02/22-rdf-syntax-ns#"
   xmlns:svg="http://www.w3.org/2000/svg"
   xmlns="http://www.w3.org/2000/svg"
   xmlns:sodipodi="http://sodipodi.sourceforge.net/DTD/sodipodi-0.dtd"
   xmlns:inkscape="http://www.inkscape.org/namespaces/inkscape"
   version="1.1"
   id="svg2"
   width="522"
   height="670"
   viewBox="0 0 522 670"
   sodipodi:docname="Canal 9 (2022).svg"
   inkscape:version="1.0.1 (3bc2e813f5, 2020-09-07)">
  <metadata
     id="metadata8">
    <rdf:RDF>
      <cc:Work
         rdf:about="">
        <dc:format>image/svg+xml</dc:format>
        <dc:type
           rdf:resource="http://purl.org/dc/dcmitype/StillImage" />
        <dc:title></dc:title>
      </cc:Work>
    </rdf:RDF>
  </metadata>
  <defs
     id="defs6" />
  <sodipodi:namedview
     pagecolor="#ffffff"
     bordercolor="#666666"
     borderopacity="1"
     objecttolerance="10"
     gridtolerance="10"
     guidetolerance="10"
     inkscape:pageopacity="0"
     inkscape:pageshadow="2"
     inkscape:window-width="1920"
     inkscape:window-height="1017"
     id="namedview4"
     showgrid="false"
     showguides="true"
     inkscape:guide-bbox="true"
     inkscape:zoom="1"
     inkscape:cx="415.29866"
     inkscape:cy="236.46926"
     inkscape:window-x="-8"
     inkscape:window-y="-8"
     inkscape:window-maximized="1"
     inkscape:current-layer="g10"
     inkscape:document-rotation="0" />
  <g
     inkscape:groupmode="layer"
     inkscape:label="Image"
     id="g10">
    <path
       style="opacity:1;fill:#13498c;fill-opacity:1;fill-rule:evenodd;stroke-width:61.9606;stroke-linecap:round;paint-order:fill markers stroke"
       d="M 306.04119,578.03111 H 107.70121 L 209.23496,411.00056 c 5.33707,-8.77988 4.1461,-8.03957 -13.21029,-8.03957 C 139.51821,402.96099 10,376.9254 10,219.16684 c 0,-72.77271 19.556557,-77.27131 12.688549,-96.9432 -5.970134,-17.10013 7.152865,-34.346849 24.294175,-34.346849 17.393099,0 28.081244,15.880559 25.634437,29.923199 -1.649578,9.46721 -8.851377,18.53058 -19.184689,21.0298 -7.827871,1.89325 -18.027045,31.39914 -18.027045,80.33705 0,63.97568 48.781828,159.26206 162.405693,159.26206 35.14412,0 62.02706,-6.45591 62.02706,-6.45591 L 155.18825,551.02021 h 133.41993 c 0,0 52.15795,-104.46088 77.16749,-147.77835 24.99358,-43.2902 63.82898,-111.12651 65.45529,-187.82188 2.17843,-102.72947 -87.36632,-179.520857 -203.5159,-179.520857 -26.70262,0 -42.62287,-0.520042 -47.10421,6.342477 -8.08437,12.380121 -11.82,22.131567 -30.27442,22.131567 -17.94244,0 -24.25352,-14.316119 -24.25352,-26.169491 0,-14.328443 11.6134,-27.267347 27.68998,-27.267347 9.33658,0 14.64855,5.503668 18.28943,5.238887 C 183.89249,15.314861 196.02858,10 231.21266,10 c 91.29636,0 226.07936,46.431538 223.75585,226.74914 -0.55261,42.88344 -26.4486,111.59569 -59.91029,165.20201 z"
       id="path841"
       sodipodi:nodetypes="ccssssssssscccsssssssssscc" />
    <circle
       style="opacity:1;fill:#13498c;fill-opacity:1;fill-rule:evenodd;stroke-width:12.1987;stroke-linecap:round;paint-order:fill markers stroke"
       id="path851"
       cx="232.84386"
       cy="220.00345"
       r="93.102348" />
    <circle
       style="opacity:1;fill:#1d3565;fill-opacity:1;fill-rule:evenodd;stroke-width:16.7654;stroke-linecap:round;paint-order:fill markers stroke"
       id="path851-9"
       cx="384.04514"
       cy="532.04486"
       r="127.95514" />
    <path
       style="opacity:1;fill:#ffffff;fill-opacity:1;fill-rule:evenodd;stroke-width:21.0653;stroke-linecap:round;paint-order:fill markers stroke"
       d="m 376.76082,583.06404 -29.11637,-74.10381 c -1.92787,-4.90638 -1.91936,-4.90638 2.49449,-4.90638 h 29.90555 l 16.33582,43.39085 18.25006,-43.39085 28.67148,0.24079 c 3.57187,0.03 2.70932,-0.24079 0.53506,5.10963 l -30.47373,74.99058 c -0.60853,1.4978 -1.66457,1.56675 -3.28125,1.56675 h -27.1556 c -2.27079,0 -5.30923,-0.79439 -6.16551,-2.89756 z"
       id="path855"
       sodipodi:nodetypes="ssscccssssss" />
    <path
       style="opacity:1;fill:#ffffff;fill-opacity:1;fill-rule:evenodd;stroke-width:21.0653;stroke-linecap:round;paint-order:fill markers stroke"
       d="m 449.58341,477.56634 c 0,-2.35905 1.48723,-3.40677 3.58617,-3.41233 l 24.86162,-0.0659 c 3.32355,-0.01 4.50847,1.08619 4.50847,4.3824 v 104.07315 c 0,2.16326 -0.13516,3.41786 -2.29841,3.41786 h -28.31811 c -2.24965,0 -2.33974,-1.26249 -2.33974,-3.51217 z"
       id="path857"
       sodipodi:nodetypes="sssssssss" />
    <path
       style="opacity:1;fill:#ffffff;fill-opacity:1;fill-rule:evenodd;stroke-width:20.0535;stroke-linecap:round;paint-order:fill markers stroke"
       d="m 293.96342,487.7299 c 0,-2.13786 1.48723,-3.08733 3.58617,-3.09237 l 24.86162,-0.0596 c 3.32355,-0.009 4.50847,0.98433 4.50847,3.9715 v 15.32954 c 0,1.75337 0.10089,4.18939 2.9417,4.18939 H 340.982 c 3.20759,0 2.75083,1.25704 2.75083,3.42102 v 16.96708 c 0,4.10347 -1.66322,4.28244 -3.87763,4.28244 h -10.45927 c -1.9267,0 -2.47625,0.50046 -2.47625,3.72383 v 19.82953 c 0,3.04806 3.10969,7.41877 8.19244,5.9046 5.76387,-1.71705 6.07224,-2.22045 7.94768,2.61284 l 5.83696,15.04269 c 2.63912,6.80126 -13.39797,7.50571 -20.7546,7.50571 -35.11592,0 -34.17874,-27.02492 -34.17874,-29.06366 v -22.48339 c 0,-3.60067 -0.14617,-3.07215 -3.07223,-3.07215 h -5.67901 c -3.58317,0 -3.01605,-2.04643 -3.01605,-4.00314 v -17.21882 c 0,-2.35984 0.29515,-3.44858 2.29175,-3.44858 h 6.45873 c 1.935,0 3.01681,-2.05537 3.01681,-3.81701 z"
       id="path857-2"
       sodipodi:nodetypes="sssssssssssssssssssssssssss" />
  </g>
</svg>
