<?xml version="1.0" encoding="UTF-8" standalone="no"?>
<svg
   xmlns:dc="http://purl.org/dc/elements/1.1/"
   xmlns:cc="http://creativecommons.org/ns#"
   xmlns:rdf="http://www.w3.org/1999/02/22-rdf-syntax-ns#"
   xmlns:svg="http://www.w3.org/2000/svg"
   xmlns="http://www.w3.org/2000/svg"
   xmlns:xlink="http://www.w3.org/1999/xlink"
   xmlns:sodipodi="http://sodipodi.sourceforge.net/DTD/sodipodi-0.dtd"
   xmlns:inkscape="http://www.inkscape.org/namespaces/inkscape"
   inkscape:version="1.0 (4035a4fb49, 2020-05-01)"
   sodipodi:docname="Canal 19 (2022).svg"
   viewBox="0 0 576 520"
   height="520"
   width="576"
   id="svg2"
   version="1.1">
  <metadata
     id="metadata8">
    <rdf:RDF>
      <cc:Work
         rdf:about="">
        <dc:format>image/svg+xml</dc:format>
        <dc:type
           rdf:resource="http://purl.org/dc/dcmitype/StillImage" />
        <dc:title></dc:title>
      </cc:Work>
    </rdf:RDF>
  </metadata>
  <defs
     id="defs6">
    <linearGradient
       id="linearGradient908"
       inkscape:collect="always">
      <stop
         id="stop904"
         offset="0"
         style="stop-color:#018c37;stop-opacity:1" />
      <stop
         style="stop-color:#53c52e;stop-opacity:1"
         offset="0.37237504"
         id="stop912" />
      <stop
         id="stop914"
         offset="0.8217597"
         style="stop-color:#93ce1c;stop-opacity:1" />
      <stop
         id="stop906"
         offset="1"
         style="stop-color:#93cb22;stop-opacity:1" />
    </linearGradient>
    <linearGradient
       id="linearGradient896"
       inkscape:collect="always">
      <stop
         id="stop892"
         offset="0"
         style="stop-color:#90cd20;stop-opacity:1;" />
      <stop
         style="stop-color:#81cf18;stop-opacity:1"
         offset="0.14332765"
         id="stop918" />
      <stop
         style="stop-color:#00bb36;stop-opacity:1"
         offset="0.49487039"
         id="stop916" />
      <stop
         style="stop-color:#0e7713;stop-opacity:1;"
         offset="0.89710504"
         id="stop902" />
      <stop
         id="stop894"
         offset="1"
         style="stop-color:#064409;stop-opacity:1" />
    </linearGradient>
    <linearGradient
       id="linearGradient888"
       inkscape:collect="always">
      <stop
         id="stop884"
         offset="0"
         style="stop-color:#009ceb;stop-opacity:1" />
      <stop
         style="stop-color:#0196f0;stop-opacity:1"
         offset="0.48544887"
         id="stop922" />
      <stop
         id="stop886"
         offset="1"
         style="stop-color:#016df4;stop-opacity:1" />
    </linearGradient>
    <radialGradient
       gradientUnits="userSpaceOnUse"
       gradientTransform="matrix(2.7187866,5.5177717e-8,0,4.8534548,-74.600192,-614.33719)"
       r="168.99126"
       fy="171.5766"
       fx="36.212154"
       cy="171.5766"
       cx="36.212154"
       id="radialGradient900"
       xlink:href="#linearGradient896"
       inkscape:collect="always" />
    <linearGradient
       gradientTransform="matrix(1.4782291,0,0,1.4782291,-29.676933,-36.348275)"
       gradientUnits="userSpaceOnUse"
       y2="191.46213"
       x2="393.02371"
       y1="50.376682"
       x1="278.24652"
       id="linearGradient910"
       xlink:href="#linearGradient908"
       inkscape:collect="always" />
    <radialGradient
       gradientTransform="matrix(1.5874163,0,0,1.7973916,-46.8201,-79.408682)"
       gradientUnits="userSpaceOnUse"
       r="167.22119"
       fy="134.91685"
       fx="157.00714"
       cy="134.91685"
       cx="157.00714"
       id="radialGradient920"
       xlink:href="#linearGradient888"
       inkscape:collect="always" />
  </defs>
  <sodipodi:namedview
     inkscape:current-layer="g10"
     inkscape:window-maximized="1"
     inkscape:window-y="-8"
     inkscape:window-x="-8"
     inkscape:cy="537.68603"
     inkscape:cx="140.99044"
     inkscape:zoom="0.5"
     showgrid="false"
     id="namedview4"
     inkscape:window-height="1009"
     inkscape:window-width="1920"
     inkscape:pageshadow="2"
     inkscape:pageopacity="0"
     guidetolerance="10"
     gridtolerance="10"
     objecttolerance="10"
     borderopacity="1"
     bordercolor="#666666"
     pagecolor="#ffffff" />
  <g
     id="g10"
     inkscape:label="Image"
     inkscape:groupmode="layer">
    <circle
       r="247.19122"
       cy="262.80878"
       cx="259.99982"
       id="path882"
       style="opacity:1;fill:url(#radialGradient920);fill-opacity:1;fill-rule:evenodd;stroke:none;stroke-width:1.56728;stroke-linecap:square;stroke-linejoin:round;paint-order:stroke markers fill" />
    <path
       sodipodi:nodetypes="ccccccc"
       id="path837"
       d="M 84.780914,180.15333 H 100.42266 L 78.573873,344.26752 C 105.87344,296.45425 137.65356,251.17347 180.12106,211.93339 L 197.00423,88.040839 c 0,0 -68.27746,57.849631 -107.754245,57.353061 z"
       style="fill:#ffffff;fill-opacity:1;stroke:none;stroke-width:1.47823px;stroke-linecap:butt;stroke-linejoin:miter;stroke-opacity:1" />
    <path
       sodipodi:nodetypes="cccc"
       id="path839"
       d="m 70.380579,410.807 h 82.181241 l 23.09019,-169.32809 c 0,0 -62.56699,65.29808 -105.271431,169.32809 z"
       style="fill:#ffffff;fill-opacity:1;stroke:none;stroke-width:1.47823px;stroke-linecap:butt;stroke-linejoin:miter;stroke-opacity:1" />
    <path
       sodipodi:nodetypes="ccscccccsssss"
       d="m 380.942,113.93365 c -67.71645,0 -163.33484,84.60044 -163.33484,84.60044 0,0 -1.34009,4.99621 -1.34009,6.91131 0,65.79963 47.8577,126.59641 140.38186,116.22939 l -19.86082,89.38088 H 413.2576 L 451.42726,222.59052 C 472.8779,142.53571 431.75107,113.93365 380.942,113.93365 Z m -2.13453,95.57959 c 0,19.6907 -20.58922,41.40259 -46.34828,41.40259 -16.00783,0 -42.41376,-16.08872 -42.41376,-41.66415 0,-28.61135 18.84876,-48.23664 43.04915,-48.23664 24.80551,0 45.71289,16.55946 45.71289,48.4982 z"
       style="opacity:1;fill:#ffffff;fill-opacity:1;stroke:none;stroke-width:1.47823px;stroke-linecap:butt;stroke-linejoin:miter;stroke-opacity:1"
       id="path841" />
    <path
       style="fill:#ffffff;fill-opacity:1;stroke:none;stroke-width:1.47823px;stroke-linecap:butt;stroke-linejoin:miter;stroke-opacity:1"
       d="m 420.45191,118.18384 c -50.75511,-19.848593 -127.00146,13.31168 -200.85987,59.96002 0,0 20.69707,-90.374537 117.6855,-90.374537 37.86158,0 83.17436,30.414517 83.17437,30.414517 z"
       id="path837-7"
       sodipodi:nodetypes="ccsc" />
    <path
       style="opacity:1;fill:url(#linearGradient910);fill-opacity:1;stroke:none;stroke-width:1.47823px;stroke-linecap:butt;stroke-linejoin:miter;stroke-opacity:1"
       d="m 368.01521,32.559959 -2.9243,23.576682 c 0,0 -32.89923,80.555499 19.06825,124.804499 56.16791,47.82559 83.90886,57.21755 181.84084,74.44153 -22.87275,-42.51013 -25.58755,-98.79598 -37.08207,-144.80052 -11.7247,-46.925832 -32.28677,-83.154459 -82.76295,-83.154459 -18.58726,0 -78.13977,5.132268 -78.13977,5.132268 z"
       id="path839-3"
       sodipodi:nodetypes="ccscssc" />
    <path
       sodipodi:nodetypes="csscccscscscscccsccsc"
       id="path865"
       d="M 87.263731,440.84908 C 87.263731,440.84908 10,367.0924 10,259.29754 10,151.50268 94.971837,10 259.29754,10 c 92.3369,0 152.03474,40.801936 189.3871,84.712439 l 50.57,6.226081 -43.89986,0.77467 c 8.14939,10.07047 14.90017,20.13568 20.64141,30.12096 0.68763,1.19595 33.61937,11.56228 33.61937,11.56228 0,0 -30.39859,-5.80084 -29.81603,-4.71424 10.0358,18.71945 16.38607,35.99878 19.86005,48.9196 -5.37969,-12.5627 -11.25053,-25.14907 -19.70998,-38.33328 -0.55992,-0.87267 -3.4524,32.87824 -3.4524,32.87824 0,0 0.0854,-37.96253 -0.77739,-39.20025 -9.75065,-13.98671 -22.68953,-28.7253 -41.20802,-44.870453 -1.91163,-1.666638 -3.59327,48.939853 -3.59327,48.939853 0,0 -4.27333,-34.87274 -5.47902,-56.462868 C 387.7104,60.816017 335.92046,38.632787 266.77136,38.632787 163.62655,38.632787 59.157262,147.64033 61.264001,245.95485 61.264001,128.32646 138.16,74.606686 138.16,74.606686 c 0,0 -114.115068,65.297264 -114.115068,197.331294 0,100.42821 63.218799,168.9111 63.218799,168.9111 z"
       style="fill:url(#radialGradient900);fill-opacity:1;stroke:none;stroke-width:1.47823px;stroke-linecap:butt;stroke-linejoin:miter;stroke-opacity:1" />
  </g>
</svg>
