<?xml version="1.0" encoding="UTF-8" standalone="no"?>
<!-- Created with Inkscape (http://www.inkscape.org/) -->

<svg
   xmlns:dc="http://purl.org/dc/elements/1.1/"
   xmlns:cc="http://creativecommons.org/ns#"
   xmlns:rdf="http://www.w3.org/1999/02/22-rdf-syntax-ns#"
   xmlns:svg="http://www.w3.org/2000/svg"
   xmlns="http://www.w3.org/2000/svg"
   xmlns:sodipodi="http://sodipodi.sourceforge.net/DTD/sodipodi-0.dtd"
   xmlns:inkscape="http://www.inkscape.org/namespaces/inkscape"
   id="svg3718"
   version="1.1"
   inkscape:version="0.48.2 r9819"
   width="1000"
   height="704.05396"
   xml:space="preserve"
   sodipodi:docname="A.svg"><metadata
     id="metadata3724"><rdf:RDF><cc:Work
         rdf:about=""><dc:format>image/svg+xml</dc:format><dc:type
           rdf:resource="http://purl.org/dc/dcmitype/StillImage" /><dc:title></dc:title></cc:Work></rdf:RDF></metadata><defs
     id="defs3722"><clipPath
       clipPathUnits="userSpaceOnUse"
       id="clipPath3760"><path
         d="m 627.055,264.469 453.543,0 0,113.151 -453.543,0 0,-113.151 z"
         id="path3762"
         inkscape:connector-curvature="0" /></clipPath><clipPath
       clipPathUnits="userSpaceOnUse"
       id="clipPath3820"><path
         d="m 259.829,264.699 226.771,0 0,56.575 -226.771,0 0,-56.575 z"
         id="path3822"
         inkscape:connector-curvature="0" /></clipPath><clipPath
       clipPathUnits="userSpaceOnUse"
       id="clipPath3880"><path
         d="m 36.176,264.469 85.039,0 0,21.216 -85.039,0 0,-21.216 z"
         id="path3882"
         inkscape:connector-curvature="0" /></clipPath></defs><sodipodi:namedview
     pagecolor="#ffffff"
     bordercolor="#666666"
     borderopacity="1"
     objecttolerance="10"
     gridtolerance="10"
     guidetolerance="10"
     inkscape:pageopacity="0"
     inkscape:pageshadow="2"
     inkscape:window-width="1146"
     inkscape:window-height="1038"
     id="namedview3720"
     showgrid="false"
     fit-margin-left="0.5"
     fit-margin-bottom="0.5"
     fit-margin-top="0.5"
     fit-margin-right="0.5"
     inkscape:zoom="0.51970108"
     inkscape:cx="712.17788"
     inkscape:cy="266.83337"
     inkscape:window-x="766"
     inkscape:window-y="-21"
     inkscape:window-maximized="0"
     inkscape:current-layer="g3726"><inkscape:grid
       type="xygrid"
       id="grid8410"
       empspacing="5"
       visible="true"
       enabled="true"
       snapvisiblegridlinesonly="true" /></sodipodi:namedview><g
     id="g3726"
     inkscape:groupmode="layer"
     inkscape:label="Warburtons_Brand_Guidelines"
     transform="matrix(1.25,0,0,-1.25,-1164.7611,-562.5577)"><path
       sodipodi:nodetypes="cccccccccc"
       inkscape:connector-curvature="0"
       id="path8454"
       d="m 1713.4649,-458.14669 17.9,0 c -20.9511,-73.93033 -82.3927,-119.7027 -162.5628,-119.7027 -90.9572,0 -163.678,61.1047 -228.0005,61.1047 -38.8396,0 -64.7743,-14.32196 -83.0167,-53.40417 l -18.4113,0 c 15.2265,46.42894 52.9021,80.58272 117.327,80.58272 82.7374,0 144.2367,-59.36522 228.6278,-59.36522 35.5855,0 65.8206,8.49535 93.6784,34.27656 17.0774,16.71691 27.8638,35.96431 34.4581,56.50811 z"
       style="fill:#ed1c2e;fill-opacity:1;stroke:none" /><g
       transform="matrix(5.0084345,0,0,5.0084345,815.31337,-4692.0687)"
       inkscape:label="LanguageArts"
       id="g2993"><path
         style="fill:#ed1c2e;fill-opacity:1;fill-rule:nonzero;stroke:none"
         d="m 89.034706,810.45614 c -6.60923,-0.472 -12.213475,-6.028 -12.213795,-13.87 l 0,-37.304 c 0.003,-1.347 -1.00399,-2.51 -2.46169,-2.51 l -11.6457,0 c -25.21987,-0.03 -22.982,32.201 -1.51489,32.239 l 12.87654,0 6e-5,9.373 -13.35001,0 c -8.54872,0 -14.89253,-3.19 -19.17281,-7.953 -4.28028,-4.762 -6.42578,-11.17 -6.43827,-17.563 -0.0133,-6.393 2.10575,-12.764 6.48562,-17.516 4.37986,-4.753 10.99663,-7.954 20.07227,-7.954 l 21.965885,0 c 1.44939,0 2.65105,1.251 2.65105,2.7 l 0,45.493 c -0.008,2.344 1.31003,4.155 3.02979,4.688 1.71974,0.529 3.73772,-0.145 4.92339,-1.847 l 0.0474,-0.05 c 6.247404,-10.221 31.060194,-50.017 31.102554,-50.086 0.67932,-0.972 1.49184,-1.144 2.08297,-0.947 0.59112,0.197 1.18811,0.837 1.18351,2.415 l 0,45.825 c -0.008,2.342 1.31192,4.155 3.02977,4.687 1.71784,0.53 3.69083,-0.144 4.87606,-1.846 l 0,-0.05 0.0946,0 c 6.24742,-10.221 31.0602,-50.017 31.10256,-50.086 0.67364,-0.962 1.45813,-1.15 2.08297,-0.947 0.62483,0.203 1.23541,0.8 1.23084,2.368 l 0,60.5 -9.42072,0 0,-35.315 c 0,0 -5.61644,9.595 -15.24356,26.132 -9.42733,16.194 -27.21972,9.49 -27.22065,-4.45 l 0,-21.682 c 0,0 -5.52122,9.595 -15.14888,26.132 -4.124543,7.083 -9.866374,9.787 -15.006874,9.42 z m -26.652575,-0.237 c -52.4261104,0 -51.92015,-74.711 0.71011,-74.749 l 20.593025,0 c 8.8494,0 14.499381,5.241 14.486111,14.911 l 0,18.936 c 0,0 11.564843,-19.114 16.095683,-26.605 7.69753,-12.727 26.32064,-10.225 26.27385,5.681 l 0,20.924 c 0,0 11.51695,-19.112 16.04836,-26.605 7.69751,-12.727 26.36795,-10.223 26.32119,5.681 l 0,61.826 -9.42072,8e-5 0,-60.50108 c 0.008,-2.32 -1.2094,-4.044 -2.88775,-4.592 -1.67836,-0.545 -3.61025,0.135 -4.78137,1.799 l -0.0474,0 0,0.09 c 0,0 -24.82367,39.691 -31.14991,50.039 -0.0152,0.02 -0.0321,-0.02 -0.0474,0 -0.006,0 0.006,0.05 0,0.05 -0.65241,0.869 -1.49257,1.064 -2.17765,0.852 -0.70755,-0.22 -1.37739,-0.828 -1.37288,-2.367 l 0,-45.825 c 0.008,-2.31 -1.17757,-4.132 -2.8404,-4.686 -1.66284,-0.555 -3.56859,0.181 -4.73404,1.845 l 0,0.05 -0.0474,0 c 0,0 -24.839893,39.766 -31.149894,50.086 -0.65852,0.941 -1.51348,1.166 -2.22499,0.946 -0.71151,-0.219 -1.37738,-0.826 -1.37288,-2.366 l 0,-0.05 0,-45.493 c 0,-2.758 -2.26741,-5.066 -5.01806,-5.066 l -21.965885,0 c -9.63939,0 -16.9461,3.471 -21.77653,8.71 -4.83042,5.24 -7.20927,12.191 -7.19572,19.126 0.0133,6.934 2.38725,13.928 7.10105,19.173 4.71378,5.244 11.7794,8.695 20.92439,8.711 l 13.34995,0 0,9.467 -11.69304,0 z"
         id="path2997-4"
         inkscape:connector-curvature="0"
         sodipodi:nodetypes="cccsccccscccssscccccscccccccsccccscccccccsccccccccccccccccccccccccccccssscccccccc" /><path
         id="rect4466"
         transform="matrix(0.8,0,0,-0.8,23.114927,810.70072)"
         d="m 184.9375,0.59375 0,75.625 c 0.006,1.96 -0.75021,2.715 -1.53125,2.96875 -0.78105,0.25375 -1.7517,0.015 -2.59375,-1.1875 -0.053,-0.08625 -31.06571,-49.8175 -38.875,-62.59375 l -0.125,0 0,-0.0625 c -1.48152,-2.1275 -3.94645,-2.975 -6.09375,-2.3125 -2.14731,0.665 -3.79125,2.91625 -3.78125,5.84375 l 0,57.28125 c 0.006,1.9725 -0.7611,2.785 -1.5,3.03125 -0.73891,0.24625 -1.7446,0.0275 -2.59375,-1.1875 -0.0529,-0.08625 -31.065737,-49.8175 -38.875,-62.59375 l -0.0625,-0.0625 C 87.424162,13.21625 84.899675,12.37 82.75,13.03125 80.6003,13.6975 78.95875,15.945 78.96875,18.875 l 0,56.875 c 0,1.81125 -1.500763,3.375 -3.3125,3.375 l -27.46875,0 C 36.84295,79.125 28.568575,75.12875 23.09375,69.1875 17.618913,63.2475 14.983375,55.2725 15,47.28125 15.015612,39.29 17.6809,31.29625 23.03125,25.34375 28.3816,19.39 36.3141,15.40625 47,15.40625 l 16.6875,0 0,-2.96875 -16.6875,0 c -11.431238,0.02 -20.264025,4.32 -26.15625,10.875 -5.89225,6.55625 -8.858375,15.30125 -8.875,23.96875 -0.01694,8.66875 2.961975,17.35625 9,23.90625 6.038038,6.54875 15.169513,10.90625 27.21875,10.90625 l 27.46875,0 c 3.438312,0 6.28125,-2.89625 6.28125,-6.34375 l 0,-56.875 0,-0.0625 c -0.0056,-1.925 0.829362,-2.66375 1.71875,-2.9375 0.889387,-0.275 1.9581,0.01125 2.78125,1.1875 7.8875,12.9 38.9375,62.59375 38.9375,62.59375 l 0.0312,0 0,0.0625 c 1.45681,2.08 3.85895,3.00625 5.9375,2.3125 2.07852,-0.6925 3.54125,-2.9875 3.53125,-5.875 l 0,-57.28125 c -0.006,-1.92375 0.83433,-2.6625 1.71875,-2.9375 0.85636,-0.265 1.90322,-0.02375 2.71875,1.0625 0.007,0 -0.007,0.0625 0,0.0625 0.0191,0.025 0.0435,-0.025 0.0625,0 7.9078,12.935 38.9375,62.53125 38.9375,62.53125 l 0,0.125 0.0625,0 c 1.4639,2.08 3.8708,2.93125 5.96875,2.25 2.09794,-0.685 3.635,-2.85 3.625,-5.75 l 0,-75.625 -3.03125,0 z"
         style="font-size:medium;font-style:normal;font-variant:normal;font-weight:normal;font-stretch:normal;text-indent:0;text-align:start;text-decoration:none;line-height:normal;letter-spacing:normal;word-spacing:normal;text-transform:none;direction:ltr;block-progression:tb;writing-mode:lr-tb;text-anchor:start;baseline-shift:baseline;color:#000000;fill:#ffffff;fill-opacity:1;fill-rule:nonzero;stroke:none;stroke-width:90;marker:none;visibility:visible;display:inline;overflow:visible;enable-background:accumulate;font-family:Sans;-inkscape-font-specification:Sans"
         inkscape:connector-curvature="0" /></g><path
       style="fill:#ed1c2e;fill-opacity:1;stroke:none"
       d="m 1229.1451,-570.14886 -17.8999,0 c 20.951,73.93033 82.3927,119.7027 162.5629,119.7027 88.8696,0 163.6779,-61.1047 228.0004,-61.1047 38.8396,0 64.7743,14.32196 83.0167,53.40417 l 18.4113,0 c -15.2265,-46.42894 -52.9021,-81.23507 -117.327,-81.23507 -81.6936,0 -145.9763,59.71004 -228.6278,59.71004 -32.8793,0 -65.8206,-8.18781 -93.6784,-33.96903 -17.0774,-16.71691 -27.8637,-35.9643 -34.4582,-56.50811 z"
       id="path8452"
       inkscape:connector-curvature="0"
       sodipodi:nodetypes="cccccccccc" /></g></svg>