<?xml version="1.0" encoding="UTF-8" standalone="no"?>
<!-- Created with Inkscape (http://www.inkscape.org/) -->

<svg
   xmlns:dc="http://purl.org/dc/elements/1.1/"
   xmlns:cc="http://creativecommons.org/ns#"
   xmlns:rdf="http://www.w3.org/1999/02/22-rdf-syntax-ns#"
   xmlns:svg="http://www.w3.org/2000/svg"
   xmlns="http://www.w3.org/2000/svg"
   xmlns:sodipodi="http://sodipodi.sourceforge.net/DTD/sodipodi-0.dtd"
   xmlns:inkscape="http://www.inkscape.org/namespaces/inkscape"
   width="264.58334mm"
   height="118.56015mm"
   viewBox="0 0 264.58334 118.56015"
   version="1.1"
   id="svg15358"
   inkscape:version="0.92.2 (5c3e80d, 2017-08-06)"
   sodipodi:docname="Distrito Comedia logo.svg">
  <defs
     id="defs15352" />
  <sodipodi:namedview
     id="base"
     pagecolor="#ffffff"
     bordercolor="#666666"
     borderopacity="1.0"
     inkscape:pageopacity="0.0"
     inkscape:pageshadow="2"
     inkscape:zoom="0.49497475"
     inkscape:cx="527.86764"
     inkscape:cy="188.76806"
     inkscape:document-units="mm"
     inkscape:current-layer="layer1"
     showgrid="false"
     inkscape:window-width="1366"
     inkscape:window-height="705"
     inkscape:window-x="-8"
     inkscape:window-y="-8"
     inkscape:window-maximized="1"
     fit-margin-top="0"
     fit-margin-left="0"
     fit-margin-right="0"
     fit-margin-bottom="0" />
  <metadata
     id="metadata15355">
    <rdf:RDF>
      <cc:Work
         rdf:about="">
        <dc:format>image/svg+xml</dc:format>
        <dc:type
           rdf:resource="http://purl.org/dc/dcmitype/StillImage" />
        <dc:title></dc:title>
      </cc:Work>
    </rdf:RDF>
  </metadata>
  <g
     inkscape:label="Layer 1"
     inkscape:groupmode="layer"
     id="layer1"
     transform="translate(-63.584234,-128.32658)">
    <path
       id="circle15395"
       style="opacity:1;fill:none;fill-opacity:0.75;stroke:#ff0000;stroke-width:11.26500034;stroke-linecap:round;stroke-linejoin:round;stroke-miterlimit:4;stroke-dasharray:none;stroke-opacity:0.67857139"
       r="15.26079"
       cy="203.59265"
       cx="124.63765"
       d=""
       inkscape:connector-curvature="0" />
    <path
       inkscape:connector-curvature="0"
       d=""
       cx="124.64329"
       cy="203.59265"
       r="15.26079"
       id="circle15397"
       style="opacity:1;fill:none;fill-opacity:0.75;stroke:#ff0000;stroke-width:11.26500034;stroke-linecap:round;stroke-linejoin:round;stroke-miterlimit:4;stroke-dasharray:none;stroke-opacity:0.67857139" />
    <g
       id="g897"
       transform="matrix(1.4295001,0,0,1.4295001,-27.309432,-106.03786)"
       style="stroke-width:0.69954526">
      <path
         id="path15393"
         transform="scale(0.26458333)"
         d="m 376.64648,619.65039 a 21.290318,21.290318 0 0 0 -20.97265,21.58399 v 58.27539 c -10.91313,-5.72769 -23.28974,-8.99219 -36.38477,-8.99219 -43.35998,0 -78.9707,35.6029 -78.9707,78.96289 0,43.35999 35.61072,78.97265 78.9707,78.97265 36.071,0 66.75302,-24.65522 76.05664,-57.90429 7.12899,25.60682 26.95452,46.61464 53.32618,54.55273 33.84287,10.187 70.57013,-3.51892 89.4746,-33.38086 a 21.290318,21.290318 0 1 0 -35.9707,-22.77343 c -8.7891,13.88345 -25.502,20.11897 -41.23633,15.38281 -15.73428,-4.73617 -26.22955,-19.15965 -25.89453,-35.58789 0.33487,-16.42829 11.41187,-30.41115 27.32617,-34.50196 15.91431,-4.09081 32.35645,2.82052 40.57227,17.05079 a 21.290318,21.290318 0 1 0 36.87305,-21.28907 c -13.25356,-22.95583 -36.89898,-37.23999 -62.33399,-39.23437 -8.47831,-0.66478 -17.15344,0.0374 -25.71094,2.23633 -24.72745,6.35623 -44.28778,24.16189 -53.51757,46.87695 V 641.23438 A 21.290318,21.290318 0 0 0 376.64648,619.65039 Z M 319.28906,733.0957 c 20.35001,0 36.38477,16.03473 36.38477,36.38477 0,20.35 -16.03476,36.39258 -36.38477,36.39258 -20.35001,0 -36.39258,-16.04258 -36.39258,-36.39258 0,-20.35004 16.04257,-36.38477 36.39258,-36.38477 z"
         style="color:#000000;font-style:normal;font-variant:normal;font-weight:normal;font-stretch:normal;font-size:medium;line-height:normal;font-family:sans-serif;font-variant-ligatures:normal;font-variant-position:normal;font-variant-caps:normal;font-variant-numeric:normal;font-variant-alternates:normal;font-feature-settings:normal;text-indent:0;text-align:start;text-decoration:none;text-decoration-line:none;text-decoration-style:solid;text-decoration-color:#000000;letter-spacing:normal;word-spacing:normal;text-transform:none;writing-mode:lr-tb;direction:ltr;text-orientation:mixed;dominant-baseline:auto;baseline-shift:baseline;text-anchor:start;white-space:normal;shape-padding:0;clip-rule:nonzero;display:inline;overflow:visible;visibility:visible;opacity:1;isolation:auto;mix-blend-mode:normal;color-interpolation:sRGB;color-interpolation-filters:linearRGB;solid-color:#000000;solid-opacity:1;vector-effect:none;fill:#11e700;fill-opacity:1;fill-rule:nonzero;stroke:none;stroke-width:29.78410339;stroke-linecap:round;stroke-linejoin:round;stroke-miterlimit:4;stroke-dasharray:none;stroke-dashoffset:0;stroke-opacity:1;color-rendering:auto;image-rendering:auto;shape-rendering:auto;text-rendering:auto;enable-background:accumulate"
         inkscape:connector-curvature="0" />
      <path
         inkscape:connector-curvature="0"
         id="circle15403"
         d="m 136.19531,225.125 a 5.6330629,5.6330629 0 0 0 -3.49219,1.23633 c -6.14181,4.77766 -15.62733,9.25976 -28.23632,9.25976 -12.609008,0 -22.096458,-4.4821 -28.238284,-9.25976 a 5.6333,5.6333 0 1 0 -6.917969,8.89258 c 7.907444,6.15111 19.865269,11.63281 35.156253,11.63281 15.29097,0 27.24685,-5.48169 35.15429,-11.63281 A 5.6330629,5.6330629 0 0 0 136.19531,225.125 Z"
         style="color:#000000;font-style:normal;font-variant:normal;font-weight:normal;font-stretch:normal;font-size:medium;line-height:normal;font-family:sans-serif;font-variant-ligatures:normal;font-variant-position:normal;font-variant-caps:normal;font-variant-numeric:normal;font-variant-alternates:normal;font-feature-settings:normal;text-indent:0;text-align:start;text-decoration:none;text-decoration-line:none;text-decoration-style:solid;text-decoration-color:#000000;letter-spacing:normal;word-spacing:normal;text-transform:none;writing-mode:lr-tb;direction:ltr;text-orientation:mixed;dominant-baseline:auto;baseline-shift:baseline;text-anchor:start;white-space:normal;shape-padding:0;clip-rule:nonzero;display:inline;overflow:visible;visibility:visible;opacity:1;isolation:auto;mix-blend-mode:normal;color-interpolation:sRGB;color-interpolation-filters:linearRGB;solid-color:#000000;solid-opacity:1;vector-effect:none;fill:#11e700;fill-opacity:1;fill-rule:nonzero;stroke:none;stroke-width:7.88037682;stroke-linecap:round;stroke-linejoin:round;stroke-miterlimit:4;stroke-dasharray:none;stroke-dashoffset:0;stroke-opacity:1;color-rendering:auto;image-rendering:auto;shape-rendering:auto;text-rendering:auto;enable-background:accumulate" />
      <path
         d="m 172.99615,186.90634 c 0,-0.91968 -0.74459,-1.66419 -1.66439,-1.66419 -0.91979,0 -1.66439,0.74451 -1.66439,1.66419 v 4.24803 c -0.7884,-0.94158 -1.8834,-1.75176 -3.6573,-1.75176 -2.78129,0 -5.34357,2.14591 -5.34357,6.06549 v 0.0438 c 0,3.91958 2.60609,6.06549 5.34357,6.06549 1.73011,0 2.847,-0.81019 3.6573,-1.90505 v 0.15328 c 0,0.91968 0.7446,1.66418 1.66439,1.66418 0.9198,0 1.66439,-0.7445 1.66439,-1.66418 z m -6.13197,5.32099 c 1.55489,0 2.84698,1.29193 2.84698,3.24077 v 0.0438 c 0,1.94884 -1.29209,3.24077 -2.84698,3.24077 -1.5549,0 -2.8689,-1.29193 -2.8689,-3.24077 v -0.0438 c 0,-1.97074 1.314,-3.24077 2.8689,-3.24077 z"
         style="font-style:normal;font-variant:normal;font-weight:normal;font-stretch:normal;font-size:medium;line-height:1.25;font-family:'Gotham Rounded';-inkscape-font-specification:'Gotham Rounded';letter-spacing:0.17727084px;word-spacing:0px;fill:#0c2571;fill-opacity:1;stroke:none;stroke-width:0.39524308;stroke-miterlimit:4;stroke-dasharray:none"
         id="path853"
         inkscape:connector-curvature="0" />
      <path
         d="m 176.12514,186.86254 c 0,0.96348 0.8103,1.57659 1.8615,1.57659 1.05119,0 1.86149,-0.61311 1.86149,-1.57659 v -0.0438 c 0,-0.96347 -0.8103,-1.55469 -1.86149,-1.55469 -1.0512,0 -1.8615,0.59122 -1.8615,1.55469 z m 0.1971,12.96308 c 0,0.91968 0.7446,1.66418 1.6644,1.66418 0.91979,0 1.66438,-0.7445 1.66438,-1.66418 v -8.67125 c 0,-0.91968 -0.74459,-1.66418 -1.66438,-1.66418 -0.9198,0 -1.6644,0.7445 -1.6644,1.66418 z"
         style="font-style:normal;font-variant:normal;font-weight:normal;font-stretch:normal;font-size:medium;line-height:1.25;font-family:'Gotham Rounded';-inkscape-font-specification:'Gotham Rounded';letter-spacing:0.17727084px;word-spacing:0px;fill:#0c2571;fill-opacity:1;stroke:none;stroke-width:0.39524308;stroke-miterlimit:4;stroke-dasharray:none"
         id="path855"
         inkscape:connector-curvature="0" />
      <path
         d="m 187.09327,201.57739 c 2.54039,0 4.48949,-1.18244 4.48949,-3.7882 v -0.0438 c 0,-2.14591 -1.9053,-2.93421 -3.54779,-3.48164 -1.2702,-0.43794 -2.3871,-0.7445 -2.3871,-1.40142 v -0.0438 c 0,-0.45985 0.4161,-0.8102 1.2264,-0.8102 0.7008,0 1.59869,0.28466 2.5404,0.7445 0.21899,0.10948 0.37229,0.15328 0.6132,0.15328 0.74459,0 1.33589,-0.56932 1.33589,-1.31383 0,-0.56932 -0.3066,-1.00726 -0.7884,-1.24813 -1.13879,-0.56933 -2.409,-0.89778 -3.63538,-0.89778 -2.3652,0 -4.29239,1.33573 -4.29239,3.7225 v 0.0438 c 0,2.2773 1.86149,3.04369 3.50398,3.52543 1.2921,0.39416 2.43089,0.63502 2.43089,1.35762 v 0.0438 c 0,0.52553 -0.438,0.87588 -1.40159,0.87588 -0.9417,0 -2.05859,-0.35035 -3.17549,-1.05106 -0.1752,-0.10948 -0.4161,-0.17518 -0.657,-0.17518 -0.74459,0 -1.31399,0.56933 -1.31399,1.31383 0,0.52554 0.2847,0.91968 0.63509,1.13866 1.4235,0.91967 2.97839,1.33571 4.42379,1.33571 z"
         style="font-style:normal;font-variant:normal;font-weight:normal;font-stretch:normal;font-size:medium;line-height:1.25;font-family:'Gotham Rounded';-inkscape-font-specification:'Gotham Rounded';letter-spacing:0.17727084px;word-spacing:0px;fill:#0c2571;fill-opacity:1;stroke:none;stroke-width:0.39524308;stroke-miterlimit:4;stroke-dasharray:none"
         id="path857"
         inkscape:connector-curvature="0" />
      <path
         d="m 197.89612,201.5555 c 0.7227,0 1.2921,-0.0876 1.9053,-0.32846 0.4599,-0.17518 0.85409,-0.65692 0.85409,-1.24814 0,-0.7664 -0.63509,-1.37951 -1.37969,-1.37951 -0.0657,0 -0.2847,0.0219 -0.3942,0.0219 -0.74459,0 -1.07309,-0.37225 -1.07309,-1.13865 v -5.01443 h 1.46729 c 0.78839,0 1.42349,-0.63502 1.42349,-1.42331 0,-0.7883 -0.6351,-1.42332 -1.42349,-1.42332 h -1.46729 v -1.4671 c 0,-0.91967 -0.7446,-1.66418 -1.6644,-1.66418 -0.9198,0 -1.6644,0.74451 -1.6644,1.66418 v 1.4671 h -0.10949 c -0.78841,0 -1.4235,0.63502 -1.4235,1.42332 0,0.78829 0.63509,1.42331 1.4235,1.42331 h 0.10949 v 5.56186 c 0,2.71524 1.3797,3.52544 3.41639,3.52544 z"
         style="font-style:normal;font-variant:normal;font-weight:normal;font-stretch:normal;font-size:medium;line-height:1.25;font-family:'Gotham Rounded';-inkscape-font-specification:'Gotham Rounded';letter-spacing:0.17727084px;word-spacing:0px;fill:#0c2571;fill-opacity:1;stroke:none;stroke-width:0.39524308;stroke-miterlimit:4;stroke-dasharray:none"
         id="path859"
         inkscape:connector-curvature="0" />
      <path
         d="m 203.17746,199.82562 c 0,0.91968 0.7446,1.66418 1.6644,1.66418 0.91979,0 1.66439,-0.7445 1.66439,-1.66418 v -3.10939 c 0,-2.36488 0.9417,-3.65681 2.628,-4.05096 0.67889,-0.15328 1.24829,-0.67881 1.24829,-1.55469 0,-0.94157 -0.5913,-1.62039 -1.62059,-1.62039 -0.9855,0 -1.7739,1.05106 -2.2557,2.18971 v -0.52553 c 0,-0.91968 -0.7446,-1.66418 -1.66439,-1.66418 -0.9198,0 -1.6644,0.7445 -1.6644,1.66418 z"
         style="font-style:normal;font-variant:normal;font-weight:normal;font-stretch:normal;font-size:medium;line-height:1.25;font-family:'Gotham Rounded';-inkscape-font-specification:'Gotham Rounded';letter-spacing:0.17727084px;word-spacing:0px;fill:#0c2571;fill-opacity:1;stroke:none;stroke-width:0.39524308;stroke-miterlimit:4;stroke-dasharray:none"
         id="path861"
         inkscape:connector-curvature="0" />
      <path
         d="m 212.46443,186.86254 c 0,0.96348 0.8103,1.57659 1.86149,1.57659 1.0512,0 1.8615,-0.61311 1.8615,-1.57659 v -0.0438 c 0,-0.96347 -0.8103,-1.55469 -1.8615,-1.55469 -1.05119,0 -1.86149,0.59122 -1.86149,1.55469 z m 0.1971,12.96308 c 0,0.91968 0.7446,1.66418 1.66439,1.66418 0.9198,0 1.6644,-0.7445 1.6644,-1.66418 v -8.67125 c 0,-0.91968 -0.7446,-1.66418 -1.6644,-1.66418 -0.91979,0 -1.66439,0.7445 -1.66439,1.66418 z"
         style="font-style:normal;font-variant:normal;font-weight:normal;font-stretch:normal;font-size:medium;line-height:1.25;font-family:'Gotham Rounded';-inkscape-font-specification:'Gotham Rounded';letter-spacing:0.17727084px;word-spacing:0px;fill:#0c2571;fill-opacity:1;stroke:none;stroke-width:0.39524308;stroke-miterlimit:4;stroke-dasharray:none"
         id="path863"
         inkscape:connector-curvature="0" />
      <path
         d="m 223.27926,201.5555 c 0.7227,0 1.2921,-0.0876 1.9053,-0.32846 0.4599,-0.17518 0.8541,-0.65692 0.8541,-1.24814 0,-0.7664 -0.6351,-1.37951 -1.3797,-1.37951 -0.0657,0 -0.2847,0.0219 -0.39419,0.0219 -0.7446,0 -1.0731,-0.37225 -1.0731,-1.13865 v -5.01443 h 1.46729 c 0.7884,0 1.42349,-0.63502 1.42349,-1.42331 0,-0.7883 -0.63509,-1.42332 -1.42349,-1.42332 h -1.46729 v -1.4671 c 0,-0.91967 -0.7446,-1.66418 -1.6644,-1.66418 -0.9198,0 -1.6644,0.74451 -1.6644,1.66418 v 1.4671 h -0.10949 c -0.78841,0 -1.4235,0.63502 -1.4235,1.42332 0,0.78829 0.63509,1.42331 1.4235,1.42331 h 0.10949 v 5.56186 c 0,2.71524 1.3797,3.52544 3.41639,3.52544 z"
         style="font-style:normal;font-variant:normal;font-weight:normal;font-stretch:normal;font-size:medium;line-height:1.25;font-family:'Gotham Rounded';-inkscape-font-specification:'Gotham Rounded';letter-spacing:0.17727084px;word-spacing:0px;fill:#0c2571;fill-opacity:1;stroke:none;stroke-width:0.39524308;stroke-miterlimit:4;stroke-dasharray:none"
         id="path865"
         inkscape:connector-curvature="0" />
      <path
         d="m 234.66925,201.62119 c 3.65729,0 6.37288,-2.73714 6.37288,-6.10929 v -0.0438 c 0,-3.37215 -2.69368,-6.06549 -6.32908,-6.06549 -3.65728,0 -6.37288,2.73713 -6.37288,6.10929 v 0.0438 c 0,3.37215 2.69369,6.0655 6.32908,6.0655 z m 0.0438,-2.86852 c -1.83959,0 -3.08789,-1.5109 -3.08789,-3.24077 v -0.0438 c 0,-1.72986 1.1388,-3.19698 3.04409,-3.19698 1.8396,0 3.0879,1.5109 3.0879,3.24078 v 0.0438 c 0,1.72988 -1.13881,3.19698 -3.0441,3.19698 z"
         style="font-style:normal;font-variant:normal;font-weight:normal;font-stretch:normal;font-size:medium;line-height:1.25;font-family:'Gotham Rounded';-inkscape-font-specification:'Gotham Rounded';letter-spacing:0.17727084px;word-spacing:0px;fill:#0c2571;fill-opacity:1;stroke:none;stroke-width:0.39524308;stroke-miterlimit:4;stroke-dasharray:none"
         id="path867"
         inkscape:connector-curvature="0" />
      <path
         d="m 166.68325,215.92011 c 1.92719,0 3.17548,-0.61312 4.16099,-1.5109 0.28469,-0.26276 0.48179,-0.61311 0.48179,-1.05105 0,-0.7883 -0.61319,-1.42332 -1.40159,-1.42332 -0.3942,0 -0.7227,0.17518 -0.8979,0.30656 -0.6351,0.50364 -1.314,0.8102 -2.18999,0.8102 -1.8177,0 -2.9784,-1.44522 -2.9784,-3.24077 v -0.0438 c 0,-1.72987 1.1826,-3.19697 2.847,-3.19697 0.876,0 1.48919,0.28466 2.08049,0.74449 0.1971,0.15328 0.5256,0.32846 0.9636,0.32846 0.83219,0 1.51109,-0.65691 1.51109,-1.48901 0,-0.56932 -0.3066,-0.96346 -0.5256,-1.13864 -0.98549,-0.83209 -2.23379,-1.31383 -4.00768,-1.31383 -3.59159,0 -6.15389,2.75903 -6.15389,6.1093 v 0.0438 c 0,3.35027 2.5842,6.0655 6.11009,6.0655 z"
         style="font-style:normal;font-variant:normal;font-weight:normal;font-stretch:normal;font-size:medium;line-height:1.25;font-family:'Gotham Rounded';-inkscape-font-specification:'Gotham Rounded';text-align:end;letter-spacing:-0.51593751px;word-spacing:0px;text-anchor:end;fill:#11e700;fill-opacity:1;stroke:none;stroke-width:0.39524308;stroke-miterlimit:4;stroke-dasharray:none"
         id="path831"
         inkscape:connector-curvature="0" />
      <path
         d="m 178.08602,215.92011 c 3.6573,0 6.37289,-2.73713 6.37289,-6.10928 v -0.0438 c 0,-3.37215 -2.69369,-6.0655 -6.32908,-6.0655 -3.65729,0 -6.37289,2.73714 -6.37289,6.1093 v 0.0438 c 0,3.37216 2.6937,6.0655 6.32908,6.0655 z m 0.0438,-2.86851 c -1.83959,0 -3.08789,-1.5109 -3.08789,-3.24077 v -0.0438 c 0,-1.72987 1.13879,-3.19697 3.04408,-3.19697 1.8396,0 3.0879,1.51089 3.0879,3.24077 v 0.0438 c 0,1.72988 -1.1388,3.19699 -3.04409,3.19699 z"
         style="font-style:normal;font-variant:normal;font-weight:normal;font-stretch:normal;font-size:medium;line-height:1.25;font-family:'Gotham Rounded';-inkscape-font-specification:'Gotham Rounded';text-align:end;letter-spacing:-0.51593751px;word-spacing:0px;text-anchor:end;fill:#11e700;fill-opacity:1;stroke:none;stroke-width:0.39524308;stroke-miterlimit:4;stroke-dasharray:none"
         id="path833"
         inkscape:connector-curvature="0" />
      <path
         d="m 185.75326,214.12455 c 0,0.91968 0.7446,1.66418 1.6644,1.66418 0.9198,0 1.66439,-0.7445 1.66439,-1.66418 v -5.01444 c 0,-1.57659 0.76649,-2.38678 2.01479,-2.38678 1.2483,0 1.9491,0.81019 1.9491,2.38678 v 5.01444 c 0,0.91968 0.7446,1.66418 1.6644,1.66418 0.91979,0 1.66438,-0.7445 1.66438,-1.66418 v -5.01444 c 0,-1.57659 0.7665,-2.38678 2.01481,-2.38678 1.24829,0 1.94908,0.81019 1.94908,2.38678 v 5.01444 c 0,0.91968 0.7446,1.66418 1.6644,1.66418 0.9198,0 1.6644,-0.7445 1.6644,-1.66418 v -6.10929 c 0,-2.82472 -1.4892,-4.31373 -3.96389,-4.31373 -1.59869,0 -2.82509,0.65691 -3.85439,1.86125 -0.6132,-1.18244 -1.77389,-1.86125 -3.30689,-1.86125 -1.68629,0 -2.6937,0.89778 -3.46019,1.88315 v -0.13138 c 0,-0.91968 -0.74459,-1.66418 -1.66439,-1.66418 -0.9198,0 -1.6644,0.7445 -1.6644,1.66418 z"
         style="font-style:normal;font-variant:normal;font-weight:normal;font-stretch:normal;font-size:medium;line-height:1.25;font-family:'Gotham Rounded';-inkscape-font-specification:'Gotham Rounded';text-align:end;letter-spacing:-0.51593751px;word-spacing:0px;text-anchor:end;fill:#11e700;fill-opacity:1;stroke:none;stroke-width:0.39524308;stroke-miterlimit:4;stroke-dasharray:none"
         id="path835"
         inkscape:connector-curvature="0" />
      <path
         d="m 208.34879,208.86925 c 0.2628,-1.5109 1.16069,-2.49627 2.54038,-2.49627 1.4016,0 2.2776,1.00726 2.4747,2.49627 z m 6.94228,5.62755 c 0.24089,-0.21897 0.438,-0.54742 0.438,-0.98536 0,-0.7445 -0.54751,-1.31384 -1.29211,-1.31384 -0.35039,0 -0.5694,0.0876 -0.81029,0.26278 -0.6789,0.50362 -1.44539,0.78829 -2.36519,0.78829 -1.4892,0 -2.5404,-0.78829 -2.8689,-2.2992 h 6.59189 c 0.87599,0 1.55489,-0.63502 1.55489,-1.59848 0,-2.43059 -1.73009,-5.64946 -5.65019,-5.64946 -3.41638,0 -5.80347,2.75903 -5.80347,6.1093 v 0.0438 c 0,3.59113 2.60609,6.0655 6.13197,6.0655 1.7082,0 3.0441,-0.54742 4.0734,-1.42331 z"
         style="font-style:normal;font-variant:normal;font-weight:normal;font-stretch:normal;font-size:medium;line-height:1.25;font-family:'Gotham Rounded';-inkscape-font-specification:'Gotham Rounded';text-align:end;letter-spacing:-0.51593751px;word-spacing:0px;text-anchor:end;fill:#11e700;fill-opacity:1;stroke:none;stroke-width:0.39524308;stroke-miterlimit:4;stroke-dasharray:none"
         id="path837"
         inkscape:connector-curvature="0" />
      <path
         d="m 229.93397,202.05571 c 0,-0.91968 -0.7446,-1.66418 -1.66438,-1.66418 -0.9198,0 -1.6644,0.7445 -1.6644,1.66418 v 3.39759 c -0.7884,-0.94158 -1.88339,-1.75177 -3.65729,-1.75177 -2.7813,0 -5.34358,2.14591 -5.34358,6.0655 v 0.0438 c 0,3.91957 2.60608,6.0655 5.34358,6.0655 1.73009,0 2.84699,-0.8102 3.65729,-1.90506 v 0.15328 c 0,0.91968 0.7446,1.66418 1.6644,1.66418 0.91978,0 1.66438,-0.7445 1.66438,-1.66418 z m -6.13197,4.47055 c 1.55489,0 2.84699,1.29193 2.84699,3.24077 v 0.0438 c 0,1.94883 -1.2921,3.24077 -2.84699,3.24077 -1.5549,0 -2.8689,-1.29194 -2.8689,-3.24077 v -0.0438 c 0,-1.97074 1.314,-3.24077 2.8689,-3.24077 z"
         style="font-style:normal;font-variant:normal;font-weight:normal;font-stretch:normal;font-size:medium;line-height:1.25;font-family:'Gotham Rounded';-inkscape-font-specification:'Gotham Rounded';text-align:end;letter-spacing:-0.51593751px;word-spacing:0px;text-anchor:end;fill:#11e700;fill-opacity:1;stroke:none;stroke-width:0.39524308;stroke-miterlimit:4;stroke-dasharray:none"
         id="path839"
         inkscape:connector-curvature="0"
         sodipodi:nodetypes="ssscsssscsssssssssss" />
      <path
         d="m 232.7558,214.12455 c 0,0.91968 0.74459,1.66418 1.66438,1.66418 0.9198,0 1.6644,-0.7445 1.6644,-1.66418 v -8.67125 c 0,-0.91968 -0.7446,-1.66418 -1.6644,-1.66418 -0.91979,0 -1.66438,0.7445 -1.66438,1.66418 z"
         style="font-style:normal;font-variant:normal;font-weight:normal;font-stretch:normal;font-size:medium;line-height:1.25;font-family:'Gotham Rounded';-inkscape-font-specification:'Gotham Rounded';text-align:end;letter-spacing:-0.51593751px;word-spacing:0px;text-anchor:end;fill:#11e700;fill-opacity:1;stroke:none;stroke-width:0.39524308;stroke-miterlimit:4;stroke-dasharray:none"
         id="path841"
         inkscape:connector-curvature="0"
         sodipodi:nodetypes="sssssss" />
      <path
         d="m 241.90518,215.87633 c 1.62059,0 2.73748,-0.59123 3.54779,-1.48901 v 0.0219 c 0,0.70072 0.63509,1.37952 1.59869,1.37952 0.8979,0 1.62059,-0.7007 1.62059,-1.59849 v -5.34289 c 0,-1.57659 -0.3942,-2.86852 -1.2702,-3.74441 -0.83219,-0.83208 -2.14619,-1.31382 -3.96388,-1.31382 -1.5549,0 -2.6937,0.21897 -3.74489,0.61312 -0.5256,0.19707 -0.89789,0.7007 -0.89789,1.29192 0,0.7664 0.61318,1.35763 1.37968,1.35763 0.1533,0 0.2847,-0.0219 0.48181,-0.0876 0.6351,-0.19708 1.37969,-0.32846 2.29948,-0.32846 1.6644,0 2.5185,0.7664 2.5185,2.14592 v 0.19707 c -0.8322,-0.28466 -1.68629,-0.48174 -2.86889,-0.48174 -2.78129,0 -4.73038,1.18245 -4.73038,3.74441 v 0.0438 c 0,2.32109 1.81769,3.59113 4.02959,3.59113 z m 1.00739,-2.29921 c -1.0731,0 -1.8177,-0.52552 -1.8177,-1.4233 v -0.0438 c 0,-1.05106 0.876,-1.62039 2.29949,-1.62039 0.8103,0 1.5549,0.17518 2.1243,0.43795 v 0.59122 c 0,1.20434 -1.0512,2.05832 -2.60609,2.05832 z"
         style="font-style:normal;font-variant:normal;font-weight:normal;font-stretch:normal;font-size:medium;line-height:1.25;font-family:'Gotham Rounded';-inkscape-font-specification:'Gotham Rounded';text-align:end;letter-spacing:-0.51593751px;word-spacing:0px;text-anchor:end;fill:#11e700;fill-opacity:1;stroke:none;stroke-width:0.39524308;stroke-miterlimit:4;stroke-dasharray:none"
         id="path843"
         inkscape:connector-curvature="0" />
    </g>
  </g>
</svg>
