<?xml version="1.0" encoding="utf-8"?>
<!-- Generator: Adobe Illustrator 25.2.3, SVG Export Plug-In . SVG Version: 6.00 Build 0)  -->
<svg version="1.1" id="Capa_2" xmlns="http://www.w3.org/2000/svg" xmlns:xlink="http://www.w3.org/1999/xlink" x="0px" y="0px"
	 viewBox="0 0 265.8 211.7" style="enable-background:new 0 0 265.8 211.7;" xml:space="preserve">
<style type="text/css">
	.st0{fill:#163D30;}
	.st1{fill:#FFFFFF;}
</style>
<g>
	<path class="st0" d="M133,155.1c42.8,0,77.5-34.7,77.5-77.5S175.8,0,133,0S55.4,34.7,55.4,77.5S90.2,155.1,133,155.1z"/>
	<path class="st1" d="M111.9,115.1c-7-3.7-12.6-9-16.5-15.8c-4-6.8-6-14.6-6-23.3c0-8.7,2-16.5,6-23.3c4-6.8,9.5-12.1,16.5-15.8
		c7-3.7,14.7-5.6,23.3-5.6c6.6,0,12.8,1,18.5,3.1c5.7,2.1,10.4,4.9,14,8.5l-12.6,14.6c-2.2-2.5-5-4.5-8.2-5.8
		c-3.2-1.4-6.8-2.1-10.7-2.1c-4.7,0-9,1.1-12.8,3.5c-3.8,2.3-6.8,5.5-9,9.6c-2.2,4.1-3.3,8.6-3.3,13.5c0,5.2,1,9.8,3,13.8
		c2,4,5,7.2,8.9,9.5c3.9,2.3,8.5,3.5,14,3.5c3.1,0,6-0.4,8.7-1.1c2.7-0.7,4.7-1.6,6-2.6l-1.6,10.2V85.4h-16.2V69h35.2v43.8
		c-4.4,2.4-9.4,4.4-15.2,5.8c-5.7,1.4-11.7,2.1-18,2.1C126.9,120.7,119,118.8,111.9,115.1L111.9,115.1z"/>
</g>
<g>
	<path class="st0" d="M4.3,198.5c0.1,6.1,4,8.5,8.4,8.5c3.2,0,5.1-0.6,6.8-1.3l0.8,3.2c-1.6,0.7-4.3,1.5-8.2,1.5
		c-7.6,0-12.1-5-12.1-12.4s4.4-13.3,11.6-13.3c8,0,10.2,7.1,10.2,11.6c0,0.9-0.1,1.6-0.2,2.1L4.3,198.5L4.3,198.5z M17.4,195.3
		c0.1-2.8-1.2-7.3-6.2-7.3c-4.5,0-6.5,4.2-6.9,7.3H17.4L17.4,195.3z"/>
	<path class="st0" d="M27.3,173.8h4.5V210h-4.5V173.8z"/>
	<path class="st0" d="M47.6,209.2c-3.1-1.6-5.6-3.9-7.4-6.9c-1.8-3-2.7-6.4-2.7-10.4c0-3.9,0.9-7.3,2.7-10.3c1.8-3,4.2-5.3,7.3-7
		c3.1-1.6,6.5-2.5,10.3-2.5c2.9,0,5.6,0.5,8.2,1.4c2.6,0.9,4.7,2.2,6.3,3.8l-6.3,7.4c-0.9-1-2-1.9-3.3-2.4c-1.3-0.6-2.7-0.9-4.4-0.9
		c-1.8,0-3.4,0.5-5,1.3c-1.5,0.9-2.7,2.1-3.6,3.7c-0.9,1.6-1.3,3.4-1.3,5.3c0,2.1,0.4,3.9,1.2,5.5c0.8,1.6,1.9,2.8,3.5,3.7
		c1.6,0.9,3.4,1.3,5.6,1.3c1.1,0,2.2-0.1,3.2-0.4c1-0.2,1.7-0.6,2-1l-0.6,5.2v-9.7h-6.7v-8.3H73v19.8c-1.9,1.1-4.2,1.9-6.8,2.6
		c-2.6,0.6-5.3,1-8,1C54.3,211.7,50.7,210.9,47.6,209.2L47.6,209.2z"/>
	<path class="st0" d="M84.3,209.9c-2.3-1.2-4.1-2.9-5.5-5.1c-1.4-2.2-2.1-4.8-2.1-7.7s0.7-5.5,2.1-7.7c1.4-2.2,3.2-3.8,5.5-5
		c2.3-1.2,4.8-1.7,7.6-1.7c2.7,0,5.3,0.6,7.7,1.7c2.3,1.2,4.2,2.8,5.6,5c1.4,2.2,2.1,4.7,2.1,7.7c0,2.9-0.7,5.5-2.1,7.7
		c-1.4,2.2-3.3,3.9-5.6,5.1c-2.4,1.2-4.9,1.8-7.7,1.8S86.6,211.1,84.3,209.9z M94.9,202.3c0.9-0.5,1.5-1.3,2-2.2
		c0.5-0.9,0.7-1.9,0.7-3c0-1-0.2-2-0.7-2.9c-0.5-0.9-1.1-1.6-2-2.2c-0.9-0.5-1.8-0.8-2.9-0.8c-1.1,0-2,0.3-2.9,0.8
		c-0.9,0.5-1.5,1.3-2,2.2c-0.5,0.9-0.7,1.9-0.7,2.9c0,1.1,0.2,2.1,0.7,3c0.5,0.9,1.1,1.6,2,2.2c0.9,0.5,1.9,0.8,3,0.8
		C93.1,203.1,94,202.8,94.9,202.3z"/>
	<path class="st0" d="M114.7,209.9c-1.5-1.1-2.5-2.4-3.1-4.1c-0.6-1.7-0.9-3.5-0.9-5.5v-16.6h10.2v14.5c0,1.1,0.1,2,0.4,2.7
		c0.2,0.7,0.6,1.3,1.1,1.7c0.5,0.4,1.2,0.6,2,0.6c0.7,0,1.4-0.2,2-0.6c0.6-0.4,1.1-1,1.4-1.8c0.3-0.8,0.5-1.6,0.5-2.7v-14.3h10.3
		v24.4c0,0.7,0,1.6,0.1,2.7h-9.9c0-0.7-0.1-1.3-0.1-1.7v-1.7h-0.1c-0.5,0.8-1.1,1.4-1.9,2.1c-0.8,0.6-1.7,1.1-2.8,1.5
		c-1.1,0.4-2.2,0.6-3.3,0.6C118.1,211.5,116.2,211,114.7,209.9L114.7,209.9z"/>
	<path class="st0" d="M144.2,186.2c0-0.7,0-1.5-0.1-2.5h9.8c0,0.7,0,1.3,0,1.7c0,0.5,0,1,0,1.7h0.1c0.7-1.2,1.6-2.3,2.8-3
		c1.2-0.8,2.6-1.2,4.2-1.2c0.9,0,1.7,0.1,2.3,0.2l-0.7,8.7c-0.9-0.2-1.7-0.3-2.5-0.3c-1.2,0-2.2,0.3-3,0.8c-0.9,0.5-1.5,1.2-2,2.1
		c-0.5,0.9-0.7,1.8-0.7,2.9v13.4h-10.2v-22.1C144.2,187.6,144.2,186.8,144.2,186.2L144.2,186.2z"/>
	<path class="st0" d="M166.4,186.5c0-0.7,0-1.7-0.1-2.9h9.9c0,0.7,0.1,1.3,0.1,1.7v1.7h0.2c0.5-0.8,1.1-1.4,1.9-2
		c0.8-0.6,1.7-1.1,2.7-1.5c1-0.4,2.1-0.6,3.3-0.6c1.9,0,3.6,0.4,5,1.2c1.4,0.8,2.4,2,3.2,3.6l-0.3-0.1c0.6-0.9,1.2-1.8,2.1-2.5
		c0.8-0.7,1.8-1.3,2.9-1.6c1.1-0.4,2.3-0.6,3.7-0.6c2.4,0,4.3,0.6,5.7,1.7c1.5,1.1,2.5,2.5,3.1,4.2c0.6,1.7,0.9,3.5,0.9,5.3v16.6
		h-10.2v-14.6c0-1.1-0.1-2.1-0.3-2.8c-0.2-0.7-0.5-1.2-1-1.6c-0.5-0.4-1.1-0.5-1.9-0.5c-0.8,0-1.4,0.2-2,0.6c-0.6,0.4-1,1-1.3,1.8
		c-0.3,0.8-0.4,1.6-0.4,2.6v14.4h-10.2V196c0-1-0.1-1.9-0.3-2.6c-0.2-0.7-0.5-1.2-1-1.6s-1.1-0.5-1.8-0.5c-0.7,0-1.3,0.2-1.8,0.6
		c-0.6,0.4-1,0.9-1.3,1.7c-0.3,0.8-0.5,1.7-0.5,2.8v14.4h-10.2v-21.3C166.5,188.2,166.5,187.3,166.4,186.5z"/>
	<path class="st0" d="M222.1,210c-2.3-1.1-4.1-2.8-5.5-5c-1.4-2.2-2.1-4.8-2.1-7.8c0-3,0.7-5.5,2-7.7c1.3-2.2,3.1-3.9,5.3-5.1
		c2.3-1.2,4.8-1.8,7.5-1.8c2.7,0,5.2,0.6,7.3,1.8c2.1,1.2,3.7,3,4.9,5.2c1.2,2.2,1.8,4.8,1.8,7.6c0,0.9-0.1,1.6-0.2,2.4h-19
		c0,0.8,0.3,1.6,0.9,2.3c0.6,0.7,1.3,1.2,2.1,1.6s1.8,0.6,2.7,0.6c1.2,0,2.3-0.2,3.2-0.7c0.9-0.5,1.6-1,2.1-1.8l7.3,3.9
		c-1.3,2-3,3.5-5.2,4.6c-2.2,1.1-4.7,1.6-7.6,1.6S224.4,211.1,222.1,210L222.1,210z M233.7,191.6c-0.4-0.7-0.9-1.2-1.6-1.5
		c-0.7-0.4-1.6-0.6-2.6-0.6s-1.9,0.2-2.7,0.6c-0.8,0.4-1.4,1-1.9,1.6c-0.5,0.7-0.7,1.4-0.8,2.1h10.2
		C234.3,193,234.1,192.3,233.7,191.6L233.7,191.6z"/>
	<path class="st0" d="M252.1,209.1c-1.7-1.5-2.5-3.9-2.5-7v-11h-4.2v-7.4h4.1v-6.5h10v6.5h6.2v7.4h-6.2v9c0,1.4,0.3,2.3,0.8,2.9
		c0.5,0.6,1.4,0.8,2.5,0.8c0.4,0,0.9,0,1.3-0.1c0.4-0.1,0.8-0.2,1.1-0.3l0,7.2c-0.7,0.3-1.5,0.5-2.5,0.7c-1,0.2-2.1,0.2-3.2,0.2
		C256.3,211.4,253.8,210.6,252.1,209.1L252.1,209.1z"/>
</g>
</svg>
